<svg xmlns="http://www.w3.org/2000/svg" width="512" height="512" viewBox="0 0 512 512" version="1.1">
	<path d="M 233 0.594 C 183.928 4.829, 157.872 11.781, 144.350 24.245 C 136.243 31.718, 135.617 33.543, 130.016 66 C 127.216 82.225, 124.357 97.258, 123.661 99.406 C 122.486 103.035, 121.788 103.576, 113.829 107.023 C 95.745 114.856, 83.165 125.208, 77.693 136.759 C 74.838 142.786, 74.500 144.453, 74.500 152.500 C 74.500 160.497, 74.845 162.224, 77.597 168 C 81.500 176.189, 88.009 183.427, 96.992 189.565 L 104 194.353 104 203.546 C 104 223.903, 109.266 240.853, 118.786 251.136 C 123.519 256.248, 127.001 262.337, 131.295 273.009 C 131.408 273.289, 130.227 276.515, 128.672 280.179 C 125.945 286.599, 125.522 287.043, 116.917 292.498 C 89.135 310.111, 66.617 335.311, 53.474 363.500 C 41.955 388.205, 36.992 413.165, 37.010 446.301 C 37.019 463.260, 37.179 464.841, 39.353 469.500 C 42.529 476.306, 48.582 481.458, 59.404 486.566 C 85.047 498.671, 132.408 507.017, 198 510.991 C 219.307 512.282, 292.693 512.282, 314 510.991 C 379.592 507.017, 426.953 498.671, 452.596 486.566 C 463.418 481.458, 469.471 476.306, 472.647 469.500 C 474.821 464.841, 474.981 463.260, 474.990 446.301 C 475.008 413.165, 470.045 388.205, 458.526 363.500 C 445.389 335.323, 422.864 310.109, 395.113 292.517 C 386.422 287.007, 386.144 286.710, 383.056 279.629 L 379.896 272.380 383.350 265.172 C 385.428 260.836, 389.179 255.426, 392.762 251.595 C 402.729 240.940, 408 224.320, 408 203.546 L 408 194.353 415.008 189.565 C 423.991 183.427, 430.500 176.189, 434.403 168 C 437.155 162.224, 437.500 160.497, 437.500 152.500 C 437.500 144.433, 437.165 142.794, 434.272 136.685 C 428.711 124.944, 413.919 113.069, 396.516 106.373 C 392.408 104.793, 388.830 102.948, 388.564 102.274 C 388.298 101.599, 385.566 86.527, 382.493 68.780 C 376.349 33.307, 375.848 31.801, 367.650 24.245 C 356.341 13.821, 333.705 6.620, 299 2.405 C 287.195 0.972, 242.753 -0.248, 233 0.594 M 128.640 188.250 C 125.935 203.339, 127.446 220.027, 132.405 229.813 C 134.743 234.426, 139.419 239, 141.797 239 C 142.930 239, 142.562 225.117, 140.838 202.793 L 139.702 188.086 135.173 186.543 C 129.222 184.516, 129.314 184.492, 128.640 188.250 M 376.342 186.632 C 372.240 188.086, 372.177 188.181, 371.624 193.803 C 370.316 207.118, 368.998 224.066, 368.682 231.653 C 368.386 238.741, 368.548 239.732, 369.921 239.240 C 381.704 235.019, 387.680 212.344, 383.360 188.250 C 382.711 184.631, 382.272 184.530, 376.342 186.632 M 176 205.278 C 176 207.828, 183.603 218.518, 187.758 221.808 C 197.254 229.329, 210.659 232.892, 222.403 231.015 C 229.542 229.875, 235 228.156, 235 227.047 C 235 226.631, 231.769 225.097, 227.821 223.639 C 220.648 220.991, 220.639 220.990, 218.528 222.974 C 211.101 229.951, 200.748 226.475, 197.710 215.983 C 196.475 211.718, 196.269 211.555, 187.974 208.308 C 176.210 203.703, 176 203.650, 176 205.278 M 325.029 207.865 C 315.648 211.570, 315.545 211.647, 314.293 215.973 C 311.252 226.475, 300.903 229.955, 293.472 222.974 C 291.361 220.990, 291.352 220.991, 284.179 223.639 C 280.231 225.097, 277 226.631, 277 227.047 C 277 228.156, 282.458 229.875, 289.597 231.015 C 301.341 232.892, 314.746 229.329, 324.242 221.808 C 330.161 217.120, 338.426 203.797, 335.250 204.063 C 334.837 204.097, 330.238 205.808, 325.029 207.865 M 306.630 215.147 C 305.209 215.973, 305.067 216.424, 306.039 217.024 C 307.734 218.072, 310 217.139, 310 215.393 C 310 213.739, 309.160 213.678, 306.630 215.147 M 211.638 219.500 C 211.955 220.325, 213.066 221, 214.107 221 C 216.404 221, 216.606 219.447, 214.418 218.607 C 211.866 217.628, 211.024 217.898, 211.638 219.500 M 246 240.627 C 228.657 242.822, 217.618 246.023, 189.383 257.049 C 178.319 261.369, 167.188 265.427, 164.647 266.067 L 160.028 267.230 162.217 270.365 C 168.063 278.737, 182.204 291.685, 192.824 298.389 C 195.917 300.341, 198.192 303.517, 203.960 313.928 C 211.556 327.640, 212.665 328.819, 222.701 333.863 C 238.200 341.652, 259.038 343.758, 275.291 339.179 C 283.313 336.918, 294.757 331.650, 298.782 328.363 C 300.037 327.338, 304.348 320.650, 308.361 313.500 C 315.346 301.059, 315.957 300.302, 322.580 295.897 C 331.134 290.208, 343.966 278.322, 347.989 272.362 C 349.645 269.908, 351 267.715, 351 267.488 C 351 267.262, 349.087 266.565, 346.750 265.939 C 344.413 265.312, 333.500 261.289, 322.500 256.997 C 299.042 247.844, 289.431 244.728, 277.939 242.548 C 269.193 240.889, 252.068 239.859, 246 240.627" stroke="none" fill="black" fill-rule="evenodd"/>
</svg>